<svg width="9" height="18" viewBox="0 0 9 18" fill="none" xmlns="http://www.w3.org/2000/svg">
<path d="M8.78023 16.6026C8.84991 16.6786 8.90518 16.7688 8.94288 16.8681C8.98059 16.9675 9 17.0739 9 17.1814C9 17.2889 8.98059 17.3953 8.94288 17.4947C8.90518 17.594 8.84991 17.6842 8.78023 17.7602C8.71056 17.8363 8.62784 17.8965 8.53681 17.9377C8.44577 17.9788 8.3482 18 8.24967 18C8.15113 18 8.05356 17.9788 7.96253 17.9377C7.87149 17.8965 7.78877 17.8363 7.7191 17.7602L0.21994 9.57883C0.150216 9.50285 0.094903 9.41262 0.057164 9.3133C0.019425 9.21398 0 9.10752 0 9C0 8.89248 0.019425 8.78602 0.057164 8.6867C0.094903 8.58738 0.150216 8.49715 0.21994 8.42116L7.7191 0.239761C7.85982 0.0862446 8.05067 -4.27966e-09 8.24967 0C8.44867 4.27966e-09 8.63952 0.0862446 8.78023 0.239761C8.92095 0.393277 9 0.60149 9 0.818595C9 1.0357 8.92095 1.24391 8.78023 1.39743L1.8107 9L8.78023 16.6026Z" fill="white"/>
</svg>
