<svg width="14" height="14" viewBox="0 0 14 14" fill="none" xmlns="http://www.w3.org/2000/svg">
<path d="M13.7949 12.8044C13.8599 12.8695 13.9115 12.9467 13.9467 13.0316C13.9819 13.1166 14 13.2077 14 13.2996C14 13.3916 13.9819 13.4827 13.9467 13.5677C13.9115 13.6526 13.8599 13.7298 13.7949 13.7949C13.7298 13.8599 13.6526 13.9115 13.5677 13.9467C13.4827 13.9819 13.3916 14 13.2996 14C13.2077 14 13.1166 13.9819 13.0316 13.9467C12.9467 13.9115 12.8695 13.8599 12.8044 13.7949L7 7.98957L1.19557 13.7949C1.06423 13.9262 0.886095 14 0.70035 14C0.514606 14 0.336469 13.9262 0.205128 13.7949C0.0737866 13.6635 3.66147e-09 13.4854 0 13.2996C-3.66147e-09 13.1139 0.0737866 12.9358 0.205128 12.8044L6.01043 7L0.205128 1.19557C0.0737866 1.06423 0 0.886095 0 0.70035C0 0.514606 0.0737866 0.336469 0.205128 0.205128C0.336469 0.0737866 0.514606 0 0.70035 0C0.886095 0 1.06423 0.0737866 1.19557 0.205128L7 6.01043L12.8044 0.205128C12.9358 0.0737866 13.1139 -3.66147e-09 13.2996 0C13.4854 3.66147e-09 13.6635 0.0737866 13.7949 0.205128C13.9262 0.336469 14 0.514606 14 0.70035C14 0.886095 13.9262 1.06423 13.7949 1.19557L7.98957 7L13.7949 12.8044Z" fill="white"/>
</svg>
