<svg width="18" height="14" viewBox="0 0 18 14" fill="none" xmlns="http://www.w3.org/2000/svg">
<path d="M18 7C18 7.20628 17.921 7.40411 17.7803 7.54997C17.6397 7.69583 17.4489 7.77778 17.25 7.77778H0.75C0.551088 7.77778 0.360322 7.69583 0.21967 7.54997C0.0790178 7.40411 0 7.20628 0 7C0 6.79372 0.0790178 6.59589 0.21967 6.45003C0.360322 6.30417 0.551088 6.22222 0.75 6.22222H17.25C17.4489 6.22222 17.6397 6.30417 17.7803 6.45003C17.921 6.59589 18 6.79372 18 7ZM0.75 1.55556H17.25C17.4489 1.55556 17.6397 1.47361 17.7803 1.32775C17.921 1.18189 18 0.984057 18 0.777778C18 0.571498 17.921 0.373668 17.7803 0.227806C17.6397 0.0819444 17.4489 0 17.25 0H0.75C0.551088 0 0.360322 0.0819444 0.21967 0.227806C0.0790178 0.373668 0 0.571498 0 0.777778C0 0.984057 0.0790178 1.18189 0.21967 1.32775C0.360322 1.47361 0.551088 1.55556 0.75 1.55556ZM17.25 12.4444H0.75C0.551088 12.4444 0.360322 12.5264 0.21967 12.6722C0.0790178 12.8181 0 13.0159 0 13.2222C0 13.4285 0.0790178 13.6263 0.21967 13.7722C0.360322 13.9181 0.551088 14 0.75 14H17.25C17.4489 14 17.6397 13.9181 17.7803 13.7722C17.921 13.6263 18 13.4285 18 13.2222C18 13.0159 17.921 12.8181 17.7803 12.6722C17.6397 12.5264 17.4489 12.4444 17.25 12.4444Z" fill="white"/>
</svg>
