<svg width="20" height="20" viewBox="0 0 20 20" fill="none" xmlns="http://www.w3.org/2000/svg">
<circle cx="10" cy="10" r="10" fill="#3253FF"/>
<path d="M14.0442 13.4552C14.083 13.4939 14.1137 13.5398 14.1346 13.5904C14.1556 13.641 14.1663 13.6952 14.1663 13.75C14.1663 13.8047 14.1556 13.8589 14.1346 13.9095C14.1137 13.9601 14.083 14.006 14.0442 14.0447C14.0055 14.0834 13.9596 14.1141 13.909 14.1351C13.8584 14.156 13.8042 14.1668 13.7495 14.1668C13.6947 14.1668 13.6405 14.156 13.5899 14.1351C13.5394 14.1141 13.4934 14.0834 13.4547 14.0447L9.99967 10.5892L6.54466 14.0447C6.46648 14.1229 6.36045 14.1668 6.24988 14.1668C6.13932 14.1668 6.03329 14.1229 5.95511 14.0447C5.87693 13.9665 5.83301 13.8605 5.83301 13.75C5.83301 13.6394 5.87693 13.5334 5.95511 13.4552L9.41064 10.0002L5.95511 6.54515C5.87693 6.46697 5.83301 6.36093 5.83301 6.25037C5.83301 6.13981 5.87693 6.03378 5.95511 5.9556C6.03329 5.87742 6.13932 5.8335 6.24988 5.8335C6.36045 5.8335 6.46648 5.87742 6.54466 5.9556L9.99967 9.41113L13.4547 5.9556C13.5329 5.87742 13.6389 5.8335 13.7495 5.8335C13.86 5.8335 13.9661 5.87742 14.0442 5.9556C14.1224 6.03378 14.1663 6.13981 14.1663 6.25037C14.1663 6.36093 14.1224 6.46697 14.0442 6.54515L10.5887 10.0002L14.0442 13.4552Z" fill="white"/>
</svg>
