<svg width="18" height="18" viewBox="0 0 18 18" fill="none" xmlns="http://www.w3.org/2000/svg">
<path d="M9.8957 14.4664C10.0362 14.607 10.1151 14.7976 10.1151 14.9963C10.1151 15.195 10.0362 15.3856 9.8957 15.5262L8.96409 16.4633C7.97889 17.4477 6.64292 18.0004 5.25007 18C3.85723 17.9996 2.5216 17.4459 1.53702 16.4609C0.552445 15.4759 -0.000439149 14.1402 2.6172e-07 12.7476C0.000439673 11.355 0.554167 10.0196 1.53937 9.0352L3.79996 6.77502C4.74627 5.82813 6.01873 5.2786 7.35695 5.23888C8.69518 5.19917 9.998 5.67226 10.9988 6.56137C11.0727 6.62683 11.1329 6.7062 11.1761 6.79494C11.2192 6.88368 11.2445 6.98005 11.2504 7.07855C11.2563 7.17704 11.2428 7.27575 11.2105 7.36901C11.1783 7.46228 11.128 7.54828 11.0625 7.62212C10.9971 7.69595 10.9177 7.75617 10.8289 7.79933C10.7402 7.84249 10.6438 7.86775 10.5453 7.87367C10.4468 7.87958 10.348 7.86604 10.2548 7.83381C10.1615 7.80159 10.0755 7.7513 10.0016 7.68584C9.28679 7.05117 8.35649 6.71351 7.40093 6.7419C6.44537 6.77029 5.53676 7.16259 4.86091 7.83858L2.60031 10.0959C1.89711 10.799 1.50206 11.7526 1.50206 12.7469C1.50206 13.7412 1.89711 14.6947 2.60031 15.3978C3.30351 16.1009 4.25725 16.4959 5.25173 16.4959C6.2462 16.4959 7.19995 16.1009 7.90315 15.3978L8.83475 14.4664C8.90439 14.3967 8.98708 14.3414 9.0781 14.3037C9.16913 14.2659 9.26669 14.2465 9.36523 14.2465C9.46376 14.2465 9.56133 14.2659 9.65235 14.3037C9.74337 14.3414 9.82606 14.3967 9.8957 14.4664ZM16.4638 1.53499C15.4784 0.552034 14.1434 0 12.7514 0C11.3595 0 10.0244 0.552034 9.03907 1.53499L8.10746 2.46736C7.9669 2.60803 7.88798 2.79876 7.88807 2.9976C7.88816 3.19644 7.96724 3.3871 8.10793 3.52764C8.24862 3.66818 8.43939 3.74709 8.63827 3.747C8.83714 3.74691 9.02784 3.66784 9.16841 3.52717L10.1 2.59574C10.8032 1.89267 11.757 1.49769 12.7514 1.49769C13.7459 1.49769 14.6997 1.89267 15.4029 2.59574C16.1061 3.29881 16.5011 4.25238 16.5011 5.24668C16.5011 6.24097 16.1061 7.19454 15.4029 7.89761L13.1423 10.1597C12.466 10.8353 11.5572 11.227 10.6017 11.2549C9.64612 11.2828 8.71601 10.9446 8.00156 10.3096C7.92771 10.2441 7.84169 10.1939 7.74841 10.1616C7.65512 10.1294 7.55641 10.1159 7.45789 10.1218C7.25892 10.1337 7.07285 10.2242 6.94062 10.3733C6.87514 10.4472 6.82485 10.5332 6.79261 10.6264C6.76038 10.7197 6.74684 10.8184 6.75275 10.9169C6.76471 11.1158 6.85521 11.3019 7.00435 11.4341C8.00493 12.3234 9.30761 12.7968 10.6458 12.7575C11.9841 12.7181 13.2566 12.1689 14.2032 11.2223L16.4638 8.96211C17.4475 7.97687 18 6.64162 18 5.24949C18 3.85735 17.4475 2.52211 16.4638 1.53686V1.53499Z" fill="white"/>
</svg>
