<svg width="81" height="36" viewBox="0 0 81 36" fill="none" xmlns="http://www.w3.org/2000/svg">
<rect y="8" width="81" height="28" rx="6" fill="#252525"/>
<path d="M17.3756 22.9355H16.2682V16.502H17.3756V22.9355ZM10.0983 21.4355C11.1647 21.4355 12.069 21.416 12.8112 21.377C13.5573 21.334 14.319 21.248 15.0963 21.1191L15.2252 22.0273C14.4205 22.1562 13.6334 22.2441 12.8639 22.291C12.0944 22.3379 11.1725 22.3613 10.0983 22.3613H9.22523V21.4355H10.0983ZM14.0241 20.1289H10.3092V21.9629H9.22523V19.2734H12.9225V18.0664H9.2018V17.1465H14.0241V20.1289ZM13.8659 23.1348C14.6041 23.1348 15.2428 23.2109 15.7819 23.3633C16.3209 23.5117 16.733 23.7305 17.0182 24.0195C17.3034 24.3086 17.4459 24.6562 17.4459 25.0625C17.4459 25.4609 17.3034 25.8027 17.0182 26.0879C16.733 26.377 16.3229 26.5977 15.7877 26.75C15.2526 26.9023 14.612 26.9785 13.8659 26.9785C13.1315 26.9785 12.4967 26.9023 11.9616 26.75C11.4264 26.5977 11.0163 26.377 10.7311 26.0879C10.4459 25.8027 10.3034 25.4609 10.3034 25.0625C10.3034 24.6562 10.4459 24.3086 10.7311 24.0195C11.0163 23.7305 11.4264 23.5117 11.9616 23.3633C12.4967 23.2109 13.1315 23.1348 13.8659 23.1348ZM13.8659 24.0137C13.3541 24.0137 12.9127 24.0547 12.5416 24.1367C12.1705 24.2148 11.8873 24.332 11.692 24.4883C11.4967 24.6445 11.3991 24.8359 11.3991 25.0625C11.3991 25.2773 11.4967 25.4629 11.692 25.6191C11.8873 25.7754 12.1705 25.8945 12.5416 25.9766C12.9127 26.0586 13.3541 26.0996 13.8659 26.0996C14.3854 26.0996 14.8288 26.0586 15.1959 25.9766C15.567 25.8945 15.8483 25.7754 16.0397 25.6191C16.235 25.4629 16.3327 25.2773 16.3327 25.0625C16.3327 24.8359 16.235 24.6445 16.0397 24.4883C15.8483 24.332 15.567 24.2148 15.1959 24.1367C14.8288 24.0547 14.3854 24.0137 13.8659 24.0137ZM26.7478 18.4297H20.0564V17.5156H26.7478V18.4297ZM28.4939 25.5898H18.9197V24.6641H28.4939V25.5898ZM27.3689 18.7871C27.3689 19.4629 27.3611 20.0332 27.3455 20.498C27.3338 20.959 27.2947 21.4785 27.2283 22.0566C27.1658 22.6309 27.0623 23.2598 26.9177 23.9434L25.8045 23.8438C25.949 23.2188 26.0545 22.6309 26.1209 22.0801C26.1912 21.5254 26.2361 21.0195 26.2556 20.5625C26.2752 20.1055 26.2849 19.5527 26.2849 18.9043V18.7871V17.5156H27.3689V18.7871ZM19.9099 21.5938L19.7634 20.6855L26.5427 20.4219V21.2422L19.9099 21.5938ZM41.5547 22.7539H31.9805V21.8516H41.5547V22.7539ZM37.3184 22.1035H36.2051V20.3398H37.3184V22.1035ZM40.377 26.9902H39.2637V24.5703H33.041V23.6914H40.377V26.9902ZM34.3418 17.873H39.2051V16.7422H40.3066V20.7148H33.2402V16.7422H34.3418V17.873ZM39.2051 19.8301V18.7051H34.3418V19.8301H39.2051ZM45.671 19.1621C45.671 19.9629 45.5499 20.7363 45.3077 21.4824C45.0655 22.2246 44.7238 22.8828 44.2823 23.457C43.8409 24.0312 43.3292 24.4707 42.7472 24.7754L42.0499 23.8789C42.5851 23.625 43.0558 23.25 43.462 22.7539C43.8722 22.2539 44.1925 21.6914 44.423 21.0664C44.6534 20.4375 44.7687 19.8027 44.7687 19.1621V17.3633H45.671V19.1621ZM45.8644 19.1621C45.8644 19.7793 45.9757 20.3887 46.1984 20.9902C46.4249 21.5879 46.7394 22.125 47.1417 22.6016C47.5441 23.0742 47.9991 23.4355 48.507 23.6855L47.8273 24.5762C47.2609 24.2793 46.7609 23.8535 46.3273 23.2988C45.8976 22.7441 45.5655 22.1094 45.3312 21.3945C45.0968 20.6797 44.9796 19.9355 44.9796 19.1621V17.3633H45.8644V19.1621ZM50.4113 26.9902H49.3038V16.4902H50.4113V26.9902ZM52.1046 21.6348H50.1593V20.6797H52.1046V21.6348ZM60.6623 26.9902H59.5608V16.4902H60.6623V26.9902ZM62.3557 21.6699H60.4104V20.75H62.3557V21.6699ZM58.6467 19.0449H52.4241V18.1367H58.6467V19.0449ZM55.5823 19.8242C56.0823 19.8242 56.5295 19.9277 56.9241 20.1348C57.3225 20.3418 57.633 20.6309 57.8557 21.002C58.0823 21.373 58.1955 21.793 58.1955 22.2617C58.1955 22.7344 58.0823 23.1562 57.8557 23.5273C57.633 23.8984 57.3225 24.1875 56.9241 24.3945C56.5295 24.6016 56.0823 24.7051 55.5823 24.7051C55.0784 24.7051 54.6291 24.6016 54.2346 24.3945C53.8401 24.1875 53.5295 23.8984 53.303 23.5273C53.0803 23.1562 52.969 22.7344 52.969 22.2617C52.969 21.793 53.0803 21.373 53.303 21.002C53.5295 20.6309 53.8401 20.3418 54.2346 20.1348C54.6291 19.9277 55.0784 19.8242 55.5823 19.8242ZM55.5823 20.7441C55.2854 20.7441 55.0198 20.8086 54.7854 20.9375C54.551 21.0625 54.3655 21.2402 54.2288 21.4707C54.0959 21.7012 54.0295 21.9648 54.0295 22.2617C54.0295 22.5625 54.0959 22.8262 54.2288 23.0527C54.3655 23.2793 54.551 23.457 54.7854 23.5859C55.0198 23.7109 55.2854 23.7734 55.5823 23.7734C55.8791 23.7734 56.1448 23.7109 56.3791 23.5859C56.6135 23.457 56.7971 23.2793 56.9299 23.0527C57.0627 22.8262 57.1291 22.5625 57.1291 22.2617C57.1291 21.9648 57.0627 21.7012 56.9299 21.4707C56.7971 21.2402 56.6135 21.0625 56.3791 20.9375C56.1448 20.8086 55.8791 20.7441 55.5823 20.7441ZM56.1272 18.5234H55.0198V16.6309H56.1272V18.5234ZM71.4642 26.9902H70.3392V16.4902H71.4642V26.9902ZM68.347 17.6211C68.347 18.6914 68.181 19.6816 67.849 20.5918C67.5209 21.498 66.9935 22.334 66.267 23.0996C65.5404 23.8613 64.5951 24.5215 63.431 25.0801L62.8334 24.1777C63.8451 23.7012 64.6752 23.1465 65.3236 22.5137C65.9759 21.8809 66.4584 21.1738 66.7709 20.3926C67.0834 19.6113 67.2396 18.748 67.2396 17.8027V17.6211H68.347ZM67.7201 18.5117H63.3431V17.6211H67.7201V18.5117Z" fill="#787878"/>
<path d="M38.4571 1.87068C39.2571 0.90077 40.7429 0.90077 41.5429 1.87068L45.9611 7.22743C47.037 8.53191 46.1091 10.5 44.4182 10.5H35.5818C33.8909 10.5 32.963 8.53191 34.0389 7.22743L38.4571 1.87068Z" fill="#252525"/>
</svg>
