<svg width="112" height="26" viewBox="0 0 112 26" fill="none" xmlns="http://www.w3.org/2000/svg">
<path d="M44.8292 8.778H44.7731L39.4372 23.5226H35L42.5826 3.95447H47.104L54.6023 23.5226H50.0247L44.8292 8.778Z" fill="#3C49FF"/>
<path d="M84.0338 8.05882H83.9777L78.6418 23.5227H74.2046L81.7871 3H86.3086L93.8069 23.5227H89.2293L84.0338 8.05882Z" fill="#3C49FF"/>
<path d="M60.2922 18.6024C60.5383 19.0698 60.8665 19.4493 61.2767 19.741C61.687 20.0326 62.165 20.247 62.7179 20.3875C63.2708 20.5281 63.8415 20.5984 64.4301 20.5984C64.8296 20.5984 65.2577 20.5668 65.7143 20.5C66.1709 20.4332 66.599 20.3067 66.9985 20.1205C67.398 19.9342 67.7298 19.6742 67.9973 19.3474C68.2648 19.0206 68.3968 18.6024 68.3968 18.0964C68.3968 17.5517 68.222 17.1124 67.8689 16.7751C67.5157 16.4378 67.0556 16.1566 66.4848 15.9317C65.9141 15.7068 65.2684 15.51 64.5443 15.3414C63.8201 15.1727 63.0889 14.9864 62.3469 14.7791C61.5871 14.5929 60.8451 14.3609 60.121 14.0904C59.3968 13.8198 58.7512 13.4684 58.1804 13.0361C57.6097 12.6039 57.1495 12.0663 56.7963 11.4197C56.4432 10.7731 56.2684 9.98946 56.2684 9.07229C56.2684 8.04267 56.4931 7.14659 56.939 6.38755C57.3849 5.62851 57.9699 4.99598 58.6941 4.48996C59.4182 3.98394 60.2351 3.60793 61.1483 3.36546C62.0615 3.12299 62.9747 3 63.8879 3C64.9545 3 65.9747 3.11596 66.9557 3.35141C67.9367 3.58685 68.8071 3.96637 69.5669 4.48996C70.3267 5.01355 70.9331 5.68474 71.379 6.5C71.8249 7.31526 72.0496 8.30271 72.0496 9.46586H67.7119C67.6727 8.86496 67.5443 8.36948 67.3267 7.9759C67.1091 7.58233 66.8166 7.27309 66.4563 7.04819C66.096 6.82329 65.6822 6.66516 65.2149 6.57028C64.7476 6.4754 64.2411 6.42972 63.6881 6.42972C63.3279 6.42972 62.964 6.46837 62.6037 6.54217C62.2434 6.61596 61.9153 6.7495 61.6192 6.93574C61.3231 7.12199 61.0805 7.35743 60.8915 7.63855C60.7024 7.91968 60.6061 8.2746 60.6061 8.70683C60.6061 9.1004 60.681 9.42018 60.8344 9.66265C60.9878 9.90512 61.2874 10.13 61.7333 10.3373C62.1792 10.5447 62.7999 10.7485 63.5883 10.9558C64.3766 11.1632 65.4111 11.4232 66.6846 11.743C67.0663 11.8168 67.5942 11.9538 68.2684 12.1506C68.9426 12.3474 69.6132 12.6601 70.2803 13.0924C70.9474 13.5246 71.5217 14.1009 72.0068 14.8213C72.492 15.5417 72.7345 16.4659 72.7345 17.5904C72.7345 18.5075 72.5526 19.3614 72.1923 20.1486C71.832 20.9357 71.2934 21.614 70.58 22.1867C69.8665 22.7595 68.9819 23.2023 67.926 23.5221C66.8701 23.8419 65.6465 24 64.2589 24C63.1352 24 62.0472 23.863 60.9913 23.5924C59.9355 23.3218 59.0044 22.8931 58.1947 22.3133C57.3849 21.7334 56.7428 20.992 56.2684 20.0924C55.794 19.1928 55.5657 18.1245 55.5835 16.8876H59.9212C59.9212 17.5622 60.046 18.135 60.2922 18.6024Z" fill="#3C49FF"/>
<path d="M104.919 3C106.187 3 107.267 3.18683 108.159 3.56049C109.051 3.93416 109.775 4.42639 110.333 5.04078C110.891 5.65516 111.3 6.35219 111.555 7.13904C111.811 7.92589 111.939 8.73789 111.939 9.58222C111.939 10.4266 111.811 11.217 111.555 12.011C111.3 12.8051 110.891 13.5093 110.333 14.1237C109.775 14.7381 109.051 15.2303 108.159 15.6039C107.267 15.9776 106.187 16.1644 104.919 16.1644H100.229V23.5227H95.7671V3H104.919ZM103.697 12.6578C104.208 12.6578 104.702 12.6182 105.175 12.5428C105.647 12.4673 106.066 12.3164 106.425 12.0973C106.784 11.8781 107.075 11.5655 107.292 11.1631C107.509 10.7607 107.619 10.2325 107.619 9.58222C107.619 8.9319 107.509 8.40374 107.292 8.00134C107.075 7.59893 106.784 7.28635 106.425 7.06718C106.066 6.84801 105.647 6.69711 105.175 6.62166C104.702 6.54621 104.208 6.50669 103.697 6.50669H100.229V12.6578H103.697Z" fill="#3C49FF"/>
<g clip-path="url(#clip0_464_8331)">
<path d="M5.18403 10.4077H0C0 19.0187 6.98072 25.9995 15.5918 25.9995V20.8154C9.84368 20.8154 5.18403 16.1558 5.18403 10.4077Z" fill="#3C49FF"/>
<path d="M15.5918 0C9.84374 0 5.18408 4.65965 5.18408 10.4077H9.95088C9.95088 7.29185 12.4764 4.76628 15.5923 4.76628C18.7082 4.76628 21.2338 7.29185 21.2338 10.4077C21.2338 13.5236 18.7082 16.0492 15.5923 16.0492V20.816C21.3404 20.816 26 16.1563 26 10.4082C26 4.66017 21.3399 0 15.5918 0Z" fill="#3C49FF"/>
</g>
<defs>
<clipPath id="clip0_464_8331">
<rect width="26" height="26" fill="white"/>
</clipPath>
</defs>
</svg>
