<svg width="18" height="16" viewBox="0 0 18 16" fill="none" xmlns="http://www.w3.org/2000/svg">
<path d="M9.9 12.4211V14.2105H14.9C15.1209 14.2105 15.3 14.3896 15.3 14.6105V15.6C15.3 15.8209 15.1209 16 14.9 16H3.1C2.87909 16 2.7 15.8209 2.7 15.6V14.6105C2.7 14.3896 2.87909 14.2105 3.1 14.2105H8.1V12.4211H0.89262C0.399645 12.4211 0 12.0194 0 11.5196V0.90143C0 0.403589 0.409779 0 0.89262 0H17.1074C17.6004 0 18 0.401665 18 0.90143V11.5196C18 12.0174 17.5902 12.4211 17.1074 12.4211H9.9Z" fill="#3253FF"/>
</svg>
