<svg width="17" height="20" viewBox="0 0 17 20" fill="none" xmlns="http://www.w3.org/2000/svg">
<g clip-path="url(#clip0_246_14360)">
<path d="M8.50021 0C4.28071 0 0.859269 3.30505 0.847136 7.38807H0.824219L0.845788 7.42462C0.845788 14.3114 8.4746 20.0013 8.4746 20.0013C8.4746 20.0013 16.1533 14.1222 16.1533 7.41287C16.1546 3.3181 12.7278 0 8.50021 0ZM8.48942 10.9907C6.36619 10.9907 4.64469 9.32385 4.64469 7.26798C4.64469 5.21211 6.36619 3.54523 8.48942 3.54523C10.6127 3.54523 12.3342 5.21211 12.3342 7.26798C12.3342 9.32385 10.6127 10.9907 8.48942 10.9907Z" fill="#667EFF"/>
</g>
<defs>
<clipPath id="clip0_246_14360">
<rect width="15.3304" height="20" fill="white" transform="translate(0.824219)"/>
</clipPath>
</defs>
</svg>
